<?xml version="1.0" encoding="utf-8"?>
<!-- Generator: Adobe Illustrator 27.5.0, SVG Export Plug-In . SVG Version: 6.00 Build 0)  -->
<svg version="1.1" id="Layer_1" xmlns="http://www.w3.org/2000/svg" xmlns:xlink="http://www.w3.org/1999/xlink" x="0px" y="0px"
	 viewBox="0 0 600 600" style="enable-background:new 0 0 600 600;" xml:space="preserve">
<style type="text/css">
	.st0{fill:#FFFFFF;}
	.st1{fill:#FFB71B;}
	.st2{fill:#004F9E;}
	.st3{fill:none;}
	.st4{fill:#004F9F;stroke:#FFB71B;stroke-width:3;stroke-miterlimit:10;}
	.st5{fill:#004F9F;}
	.st6{fill:#FFB71B;stroke:#FCEE21;stroke-width:0.5679;stroke-miterlimit:10;}
</style>
<g>
	<path class="st0" d="M452.4,401.3c19-38.8,28.6-83.4,28.6-132.5v-12.9H118.8v12.9c0,49.1,9.6,93.7,28.6,132.5
		c1.1,2.3,2.3,4.5,3.4,6.8H449C450.2,405.8,451.3,403.5,452.4,401.3L452.4,401.3z"/>
	<g>
		<path class="st1" d="M123.6,265.5c-0.6,0.6-0.6,0.6-0.6,12.9c0,10,0.1,12.4,0.4,13c0.4,0.7,0.9,0.7,13.8,0.8
			c12.9,0.1,13.5,0.1,14.1-0.6l0.7-0.7l0.1-11.6c0.1-6.3,0-11.9-0.1-12.4c-0.4-2.1,0.1-2-14.4-2C125.9,264.9,124.1,265,123.6,265.5z
			"/>
		<path class="st1" d="M157,265.6c-0.4,0.6-0.5,2.1-0.5,13.2c0,12.4,0,12.4,0.6,13c0.5,0.5,1.9,0.6,9.4,0.6h8.8l0.6-1
			c0.6-1,0.6-1.4,0.6-13c0-11.5,0-12-0.6-12.7c-0.5-0.7-0.9-0.8-9.5-0.8C158.1,264.9,157.4,264.9,157,265.6z"/>
		<path class="st1" d="M181.4,265.5c-0.2,0.3-0.4,0.9-0.4,1.2c0,0.3,0,5.9,0,12.5c0,11.6,0,11.8,0.6,12.5c0.5,0.6,1.4,0.7,9.3,0.7
			h8.7l0.7-1l0.7-0.9v-11.7c0-11.5-0.1-12.8-0.9-13.6c-0.2-0.2-4.3-0.3-9.2-0.3C183,264.9,181.8,265,181.4,265.5z"/>
		<path class="st1" d="M205.8,265.4c-0.5,0.5-0.5,1.1-0.5,13v12.5l0.7,0.7c0.6,0.7,1.2,0.7,9.3,0.7s8.7,0,9.3-0.7l0.7-0.7l0.1-11.6
			c0.1-6.3,0-11.9-0.1-12.4c-0.4-2-0.3-2-10-2C208,264.9,206.2,265,205.8,265.4z"/>
		<path class="st1" d="M230.1,265.7c-0.5,0.7-0.6,1.3-0.6,12.6c0,11.7,0.1,13,0.9,13.8c0.2,0.2,4.2,0.3,9,0.3c7.5,0,8.9-0.1,9.4-0.6
			c0.6-0.6,0.6-0.6,0.6-13.1c0-11.6,0-12.5-0.5-13.1s-1.5-0.6-9.4-0.6C231,264.9,230.6,264.9,230.1,265.7z"/>
		<path class="st1" d="M254.5,265.7c-0.5,0.7-0.6,1.3-0.6,13s0,12.2,0.6,13c0.5,0.7,0.9,0.8,9.4,0.8c7.5,0,8.9-0.1,9.4-0.6
			c0.6-0.6,0.6-0.6,0.6-13.1c0-11.6,0-12.5-0.5-13.1s-1.5-0.6-9.4-0.6C255.4,264.9,255,264.9,254.5,265.7z"/>
		<path class="st1" d="M278.8,265.7c-0.4,0.7-0.4,2.6-0.4,13c0,11.6,0,12.2,0.6,12.9c0.5,0.7,0.9,0.8,9.4,0.8c8.5,0,8.9,0,9.4-0.8
			c0.5-0.7,0.6-1.3,0.6-13.1c0-11.5,0-12.4-0.5-13s-1.5-0.6-9.6-0.6C279.2,264.9,279.2,264.9,278.8,265.7z"/>
		<path class="st1" d="M303.2,265.6c-0.4,0.6-0.5,2.1-0.5,13c0,11.8,0,12.3,0.6,13c0.5,0.7,0.9,0.8,9.4,0.8c8.5,0,8.9,0,9.4-0.8
			c0.5-0.7,0.6-1.3,0.6-12.9c0-10.3-0.1-12.2-0.4-13c-0.4-0.8-0.4-0.8-9.5-0.8C304.3,264.9,303.7,264.9,303.2,265.6z"/>
		<path class="st2" d="M327.7,265.6c-0.4,0.6-0.5,2.1-0.5,13.2c0,12.4,0,12.4,0.6,13c0.5,0.5,1.9,0.6,9.4,0.6c8.5,0,8.9,0,9.4-0.8
			c0.5-0.7,0.6-1.3,0.6-13s0-12.2-0.6-13c-0.5-0.7-0.9-0.8-9.5-0.8C328.7,264.9,328.1,264.9,327.7,265.6z"/>
		<path class="st1" d="M352.1,265.6c-0.4,0.6-0.5,2.1-0.5,13.2c0,12.4,0,12.4,0.6,13c0.5,0.5,1.9,0.6,9.4,0.6c4.8,0,8.9-0.2,9-0.3
			c0.9-0.8,0.9-2.1,0.9-13.8c0-11.4,0-11.9-0.6-12.6c-0.5-0.7-0.9-0.8-9.5-0.8C353.2,264.9,352.5,264.9,352.1,265.6z"/>
		<path class="st1" d="M376.5,265.5c-0.2,0.3-0.5,1-0.6,1.4s-0.1,6.1-0.1,12.4l0.1,11.6l0.7,0.7c0.6,0.7,1.2,0.7,9.3,0.7
			c8.1,0,8.7,0,9.3-0.7l0.7-0.7v-12.5c0-11.9,0-12.5-0.5-13c-0.4-0.4-2.2-0.5-9.5-0.5C378.1,264.9,376.8,265,376.5,265.5z"/>
		<path class="st1" d="M401.1,265.2c-0.9,0.8-0.9,2.1-0.9,13.6v11.7l0.7,0.9l0.7,1h8.7c7.9,0,8.8-0.1,9.3-0.7
			c0.6-0.6,0.6-0.9,0.6-12.5c0-6.5,0-12.1,0-12.5c0-0.3-0.2-0.9-0.4-1.2c-0.4-0.5-1.6-0.6-9.4-0.6
			C405.4,264.9,401.3,265.1,401.1,265.2z"/>
		<path class="st1" d="M425.3,265.4c-0.5,0.5-0.5,1.2-0.6,12.8l-0.1,12.2l0.7,1l0.7,1h8.7c7.4,0,8.8-0.1,9.3-0.6
			c0.6-0.6,0.6-0.6,0.6-13.1c0-10.9-0.1-12.6-0.4-13.1c-0.4-0.5-1.6-0.6-9.4-0.6C427.5,264.9,425.7,265,425.3,265.4z"/>
		<path class="st1" d="M449.7,265.5c-0.2,0.3-0.5,1-0.6,1.4s-0.1,6.1-0.1,12.4l0.1,11.6l0.7,0.7c0.6,0.7,1.2,0.7,14.1,0.6
			c12.9-0.1,13.5-0.2,13.8-0.8c0.3-0.6,0.4-3.1,0.4-13c0-12.3,0-12.3-0.6-12.9c-0.6-0.5-2.3-0.6-14-0.6
			C451.8,264.9,450.1,265,449.7,265.5z"/>
		<path class="st1" d="M123.4,298.4c-0.4,0.6-0.5,2.1-0.5,12.9c0,6.7,0.1,12.4,0.2,12.6c0.6,1.2,1.4,1.3,18.1,1.3h16.7l0.7-1
			l0.7-0.9v-12c0-11.5,0-12-0.6-12.8c-0.6-0.8-0.9-0.8-17.7-0.8C124.8,297.7,123.8,297.7,123.4,298.4z"/>
		<path class="st1" d="M164.2,298.4c-0.4,0.6-0.5,2.1-0.5,13.2c0,12.4,0,12.4,0.6,13c0.5,0.5,1.9,0.6,9.3,0.6h8.7l0.7-1l0.7-0.9v-12
			c0-11.5,0-12-0.6-12.8c-0.5-0.7-0.9-0.8-9.5-0.8C165.3,297.7,164.6,297.7,164.2,298.4z"/>
		<path class="st1" d="M188.6,298.4c-0.4,0.6-0.5,2.1-0.5,13.2c0,12.4,0,12.4,0.6,13c0.5,0.5,1.9,0.6,9.3,0.6h8.7l0.7-1l0.7-1
			l-0.1-12.2c-0.1-11.6-0.1-12.2-0.6-12.8c-0.4-0.4-2.2-0.5-9.5-0.5C189.7,297.7,189,297.7,188.6,298.4z"/>
		<path class="st2" d="M213,298.3c-0.4,0.5-0.4,2.2-0.4,13.1c0,12.5,0,12.5,0.6,13.1c0.5,0.5,1.9,0.6,9.2,0.6c7.4,0,8.7-0.1,9.2-0.6
			c0.6-0.6,0.6-0.6,0.6-13.1c0-10.9-0.1-12.6-0.4-13.1c-0.4-0.5-1.6-0.6-9.4-0.6C214.6,297.7,213.4,297.8,213,298.3z"/>
		<path class="st1" d="M237.4,298.3c-0.4,0.5-0.4,2.2-0.4,13.1c0,12.5,0,12.5,0.6,13.1c0.5,0.5,1.9,0.6,9.2,0.6
			c7.4,0,8.7-0.1,9.2-0.6c0.6-0.6,0.6-0.6,0.6-13.1c0-11.6,0-12.5-0.5-13.1c-0.5-0.6-1.5-0.6-9.4-0.6
			C239.1,297.7,237.8,297.8,237.4,298.3z"/>
		<path class="st1" d="M261.8,298.2c-0.5,0.5-0.5,1.2-0.6,12.8l-0.1,12.2l0.7,1l0.7,1h8.7c7.4,0,8.8-0.1,9.3-0.6
			c0.6-0.6,0.6-0.6,0.6-13.1c0-11.6,0-12.5-0.5-13.1s-1.5-0.6-9.4-0.6C264,297.7,262.3,297.8,261.8,298.2z"/>
		<path class="st1" d="M286.1,298.5c-0.5,0.7-0.6,1.3-0.6,12.8v12l0.7,0.9l0.7,1h8.8c8.4,0,8.8,0,9.3-0.8c0.5-0.7,0.6-1.3,0.6-13.1
			c0-11.5,0-12.4-0.5-13s-1.5-0.6-9.4-0.6C287,297.7,286.6,297.7,286.1,298.5z"/>
		<path class="st1" d="M310.5,298.5c-0.5,0.7-0.6,1.3-0.6,12.9c0,13.2,0,13.1,1.5,13.6c0.3,0.1,4.5,0.2,9.2,0.1
			c8.1-0.1,8.6-0.2,9-0.8c0.6-1.2,0.6-24.5-0.1-25.7c-0.4-0.8-0.4-0.8-9.4-0.8C311.5,297.7,311.1,297.7,310.5,298.5z"/>
		<path class="st1" d="M334.8,298.5c-0.6,1.2-0.7,24.5-0.1,25.7c0.4,0.7,0.9,0.7,9,0.8c4.7,0.1,8.8,0,9.2-0.1
			c1.5-0.5,1.5-0.4,1.5-13.6c0-11.7,0-12.2-0.6-12.9c-0.5-0.7-0.9-0.8-9.5-0.8C335.3,297.7,335.3,297.7,334.8,298.5z"/>
		<path class="st1" d="M359.3,298.4c-0.4,0.6-0.5,2.1-0.5,13c0,11.8,0,12.3,0.6,13c0.5,0.7,0.9,0.8,9.3,0.8h8.8l0.7-1l0.7-0.9v-12
			c0-11.5,0-12-0.6-12.8c-0.5-0.7-0.9-0.8-9.5-0.8C360.4,297.7,359.7,297.7,359.3,298.4z"/>
		<path class="st1" d="M383.7,298.4c-0.4,0.6-0.5,2.1-0.5,13c0,11.8,0,12.3,0.6,13c0.5,0.7,0.9,0.8,9.3,0.8h8.8l0.7-1l0.7-1
			l-0.1-12.2c-0.1-11.6-0.1-12.2-0.6-12.8c-0.4-0.4-2.2-0.5-9.5-0.5C384.8,297.7,384.1,297.7,383.7,298.4z"/>
		<path class="st1" d="M408.1,298.4c-0.4,0.6-0.5,2.1-0.5,13.2c0,12.4,0,12.4,0.6,13c0.5,0.5,1.9,0.6,9.2,0.6c7.4,0,8.7-0.1,9.2-0.6
			c0.6-0.6,0.6-0.6,0.6-13.1c0-10.9-0.1-12.6-0.4-13.1c-0.4-0.5-1.6-0.6-9.4-0.6C409.2,297.7,408.5,297.7,408.1,298.4z"/>
		<path class="st1" d="M432.5,298.4c-0.4,0.6-0.4,2-0.4,13.3l0.1,12.5l0.7,0.5c0.6,0.4,5.4,0.5,22.1,0.5c21.5,0,22.3,0,22.9-1.3
			c0.1-0.2,0.2-5.9,0.2-12.7c0-11.4,0-12.3-0.5-12.8c-0.5-0.6-2.4-0.6-22.6-0.6C434,297.7,433,297.7,432.5,298.4z"/>
		<path class="st1" d="M123.4,331.6c-0.4,0.6-0.5,2.1-0.5,12.9c0,11.3,0,12.2,0.5,12.8c0.5,0.6,2.3,0.6,20.9,0.6
			c17.2,0,20.5-0.1,21-0.5c0.5-0.5,0.5-1.1,0.5-12.9c0-9.9-0.1-12.5-0.4-13c-0.3-0.6-2.1-0.6-21-0.6
			C124.9,330.9,123.8,330.9,123.4,331.6z"/>
		<path class="st1" d="M170.7,331.3c-0.5,0.6-0.5,25.5,0,26.2c0.5,0.6,18.6,0.6,19,0c0.5-0.6,0.5-25.5,0-26.2
			S171.2,330.7,170.7,331.3z"/>
		<path class="st1" d="M195.2,331.3c-0.5,0.6-0.5,25.5,0,26.2c0.5,0.6,18.6,0.6,19,0c0.5-0.6,0.5-25.5,0-26.2
			C213.7,330.7,195.6,330.7,195.2,331.3z"/>
		<path class="st1" d="M219.4,331.7c-0.4,0.7-0.4,2.6-0.4,12.7c0,10.1,0.1,12,0.4,12.7c0.4,0.8,0.4,0.8,9.5,0.8
			c7.9,0,9.2-0.1,9.5-0.6c0.4-0.5,0.4-2.2,0.4-12.9s-0.1-12.4-0.4-12.9c-0.4-0.5-1.6-0.6-9.5-0.6
			C219.9,330.9,219.8,330.9,219.4,331.7z"/>
		<path class="st1" d="M243.8,331.7c-0.4,0.7-0.4,2.6-0.4,12.7c0,10.1,0.1,12,0.4,12.7c0.4,0.8,0.4,0.8,9.5,0.8
			c7.9,0,9.2-0.1,9.5-0.6c0.4-0.5,0.4-2.2,0.4-12.9s-0.1-12.4-0.4-12.9c-0.4-0.5-1.6-0.6-9.5-0.6
			C244.3,330.9,244.2,330.9,243.8,331.7z"/>
		<path class="st2" d="M268.2,331.7c-0.4,0.7-0.4,2.6-0.4,12.7c0,10.1,0.1,12,0.4,12.7c0.4,0.8,0.4,0.8,9.5,0.8c8.5,0,9.1,0,9.5-0.7
			c0.4-0.6,0.5-2.1,0.5-12.9c0-11.3,0-12.2-0.5-12.8c-0.5-0.6-1.5-0.6-9.6-0.6C268.7,330.9,268.7,330.9,268.2,331.7z"/>
		<path class="st1" d="M292.7,331.6c-0.4,0.6-0.5,2.1-0.5,12.9c0,11.3,0,12.2,0.5,12.8s1.5,0.6,9.5,0.6c8.4,0,9,0,9.5-0.7
			c0.4-0.6,0.5-2.1,0.5-12.9c0-11.3,0-12.2-0.5-12.8c-0.5-0.6-1.5-0.6-9.5-0.6C293.8,330.9,293.1,330.9,292.7,331.6z"/>
		<path class="st2" d="M317.1,331.6c-0.4,0.6-0.5,2.1-0.5,12.9c0,11.3,0,12.2,0.5,12.8s1.5,0.6,9.6,0.6c9,0,9,0,9.5-0.8
			c0.4-0.7,0.4-2.6,0.4-12.7c0-10.1-0.1-12-0.4-12.7c-0.4-0.8-0.4-0.8-9.5-0.8C318.2,330.9,317.5,330.9,317.1,331.6z"/>
		<path class="st1" d="M341.5,331.5c-0.4,0.5-0.4,2.2-0.4,12.9s0.1,12.4,0.4,12.9c0.4,0.5,1.6,0.6,9.5,0.6c9.1,0,9.1,0,9.5-0.8
			c0.4-0.7,0.4-2.6,0.4-12.7c0-10.1-0.1-12-0.4-12.7c-0.4-0.8-0.4-0.8-9.5-0.8C343.1,330.9,341.9,330.9,341.5,331.5z"/>
		<path class="st1" d="M365.8,331.6c-0.2,0.5-0.3,5.2-0.3,12.8s0.1,12.3,0.3,12.8c0.3,0.7,0.7,0.7,9.5,0.7c8.3,0,9.3-0.1,9.6-0.6
			c0.3-0.5,0.4-3.1,0.4-12.9s-0.1-12.4-0.4-12.9c-0.3-0.6-1.4-0.6-9.6-0.6C366.5,330.9,366,330.9,365.8,331.6z"/>
		<path class="st1" d="M390.2,331.3c-0.2,0.3-0.3,3.8-0.3,13.1s0.1,12.7,0.3,13.1c0.5,0.6,18.6,0.6,19,0c0.5-0.6,0.5-25.5,0-26.2
			S390.7,330.7,390.2,331.3z"/>
		<path class="st1" d="M414.7,331.3c-0.2,0.3-0.3,3.7-0.3,12.9c0,10.8,0.1,12.6,0.4,13.1c0.4,0.5,3.6,0.6,31.4,0.6
			c29.7,0,31.1,0,31.5-0.7c0.4-0.6,0.5-2.1,0.5-12.9c0-11.3,0-12.2-0.5-12.8c-0.5-0.6-3.1-0.6-31.6-0.6
			C422.3,330.9,414.9,331,414.7,331.3z"/>
		<path class="st1" d="M123.5,364c-0.5,0.7-0.6,1.3-0.6,13s0,12.2,0.6,13c0.5,0.7,0.9,0.8,14,0.8c13.3,0,13.4,0,14-0.8
			c0.5-0.8,0.5-1.5,0.5-13v-12.2l-0.7-0.7c-0.6-0.7-1.2-0.7-13.9-0.7C124.4,363.3,124,363.3,123.5,364z"/>
		<path class="st1" d="M157.1,363.9c-0.6,0.6-0.6,0.6-0.6,13.1c0,11.6,0,12.5,0.5,13.1s1.5,0.6,9.4,0.6c4.9,0,9-0.2,9.2-0.3
			c0.9-0.8,0.9-2.1,0.9-13.6v-11.7l-0.7-0.9l-0.7-1h-8.7C159,363.3,157.7,363.4,157.1,363.9z"/>
		<path class="st1" d="M181.6,363.9c-0.6,0.6-0.6,0.6-0.6,13.1c0,12.5,0,12.5,0.6,13.1c0.6,0.5,2.3,0.6,13.8,0.6s13.3-0.1,13.8-0.6
			c0.6-0.6,0.6-0.6,0.6-13.1c0-12.5,0-12.5-0.6-13.1c-0.6-0.5-2.3-0.6-13.8-0.6S182.1,363.4,181.6,363.9z"/>
		<path class="st1" d="M214.9,364.2l-0.7,0.9v11.8c0,11.4,0,11.8,0.6,12.8l0.6,1h78.3c43.1,0,78.4-0.2,78.6-0.3
			c0.9-0.8,0.9-2.1,0.9-13.6v-11.7l-0.7-0.9l-0.7-1h-78.1h-78.1L214.9,364.2z"/>
		<path class="st1" d="M376.6,363.9c-0.6,0.6-0.6,0.6-0.6,13.1c0,11.6,0,12.5,0.5,13.1s1.5,0.6,9.4,0.6c8.2,0,8.9,0,9.3-0.7
			c0.4-0.6,0.5-2.1,0.5-13.2c0-12.4,0-12.4-0.6-13c-0.5-0.5-1.9-0.6-9.2-0.6C378.5,363.3,377.2,363.4,376.6,363.9z"/>
		<path class="st1" d="M401.1,363.9c-0.6,0.6-0.6,0.6-0.6,13.1c0,11.6,0,12.5,0.5,13.1s1.5,0.6,9.4,0.6c8.2,0,8.9,0,9.3-0.7
			c0.4-0.6,0.5-2.1,0.5-13.2c0-12.4,0-12.4-0.6-13c-0.5-0.5-1.9-0.6-9.2-0.6C402.9,363.3,401.6,363.4,401.1,363.9z"/>
		<path class="st1" d="M425.5,363.9c-0.6,0.6-0.6,0.6-0.6,13.1c0,12.5,0,12.5,0.6,13.1c0.6,0.5,2.3,0.6,13.9,0.6
			c12.9,0,13.3,0,13.8-0.8c0.5-0.7,0.6-1.3,0.6-13s0-12.2-0.6-13c-0.5-0.7-0.9-0.8-13.8-0.8C427.8,363.3,426,363.4,425.5,363.9z"/>
		<path class="st1" d="M458.7,364c-0.5,0.7-0.6,1.3-0.6,13s0,12.2,0.6,13c0.5,0.7,0.9,0.8,9.4,0.8s8.9,0,9.4-0.8
			c0.5-0.7,0.6-1.3,0.6-13s0-12.2-0.6-13c-0.5-0.7-0.9-0.8-9.4-0.8S459.2,363.3,458.7,364z"/>
	</g>
	<path class="st0" d="M151.2,406.3c14.8,27.9,34.7,52.7,59.3,73.9c39.3,33.9,79.1,48.6,89.5,52c10.4-3.4,50.3-18.1,89.5-52
		c24.6-21.2,44.5-46.1,59.3-73.9H151.2z M315.4,157.2v-22.9c0-8.6-6.9-15.5-15.5-15.5c-8.5,0-15.5,6.9-15.5,15.5v22.9H119.2v99
		h361.6v-99H315.4z M199.9,236.4c-16.3,0-29.5-13.3-29.5-29.6c0-16.3,13.2-29.5,29.5-29.5c16.3,0,29.5,13.3,29.5,29.5
		C229.5,223.2,216.2,236.4,199.9,236.4z M400.3,236.4c-16.3,0-29.5-13.3-29.5-29.6c0-16.3,13.2-29.5,29.5-29.5
		c16.3,0,29.5,13.3,29.5,29.5C429.8,223.2,416.5,236.4,400.3,236.4z"/>
	<path class="st3" d="M480.8,157.2H315.4v-22.9c0-8.6-6.9-15.5-15.5-15.5c-8.5,0-15.5,6.9-15.5,15.5v22.9H119.2v99h361.6V157.2z"/>
	<path class="st3" d="M151.2,406.3c14.8,27.9,34.7,52.7,59.3,73.9c39.3,33.9,79.1,48.6,89.5,52c10.4-3.4,50.3-18.1,89.5-52
		c24.6-21.2,44.5-46.1,59.3-73.9H151.2z"/>
	<path class="st4" d="M277.7,80.7h45.4v10.9h-45.4V80.7z M323.1,73.7c0-5.8,8.5-8.2,8.5-18.4c0-5.6,0-7.5,0-7.5h-13.2v7.5H307v-7.5
		h-13.2v7.5h-11.4v-7.5h-13.2c0,0,0,2,0,7.5c0,9.8,8.5,12.6,8.5,18.4H323.1z M196.3,109.5h45.3V98.5h-45.3V109.5z M241.6,91.6
		c0-5.8,8.6-8.2,8.6-18.4c0-5.6,0-7.5,0-7.5H237v7.5h-11.4v-7.5h-13.2v7.5H201v-7.5h-13.2c0,0,0,2,0,7.5c0,9.8,8.5,12.6,8.5,18.4
		H241.6z M358.3,109.5h45.3V98.5h-45.3V109.5z M403.6,91.6c0-5.8,8.6-8.2,8.6-18.4c0-5.6,0-7.5,0-7.5H399v7.5h-11.4v-7.5h-13.2v7.5
		H363v-7.5h-13.2c0,0,0,2,0,7.5c0,9.8,8.5,12.6,8.5,18.4H403.6z M500,138.4V269c0,51.6-10.3,98.7-30.8,139.7
		c-16.4,32.9-39.2,62.1-67.8,86.7c-48.7,41.8-96.8,55.6-98.9,56.2l-2.6,0.7l-2.6-0.7c-2-0.6-50.2-14.5-98.8-56.2
		c-28.6-24.6-51.4-53.7-67.8-86.7C110.3,367.6,100,320.6,100,269V138.4h87.8v-2.5c0-9.8,7.7-14.4,8.5-19.2h45.3
		c0.9,4.7,8.6,9,8.6,19.2c0,1,0,1.8,0,2.5h9.4v-2.5c0-15.5-9.5-17.7-9.5-27.5v-9.8h13.2v7.6h8.5v-7.6h13.3v7.6h8.2v-7.6h6.6h6.6v7.6
		h8.2v-7.6H328v7.6h8.5v-7.6h13.2v9.8c0,9.8-9.5,12-9.5,27.5v2.5h9.5c0-0.7,0-1.5,0-2.5c0-9.8,7.7-14.4,8.5-19.2h45.3
		c0.9,4.7,8.6,9,8.6,19.2v2.5H500z M448.9,406.3c1.2-2.2,2.3-4.4,3.4-6.6c18.9-38.3,28.5-82.3,28.5-130.7v-12.8v-99H315.4v-22.9
		c0-8.6-6.9-15.5-15.5-15.5c-8.5,0-15.5,6.9-15.5,15.5v22.9H119.2v99V269c0,48.4,9.6,92.4,28.5,130.7c1.1,2.2,2.3,4.5,3.4,6.7
		c14.8,27.9,34.7,52.7,59.3,73.9c39.3,33.9,79.1,48.6,89.5,52c10.4-3.4,50.3-18.1,89.5-52C414.1,459,434,434.2,448.9,406.3z
		 M199.9,177.3c-16.3,0-29.5,13.3-29.5,29.5c0,16.3,13.2,29.6,29.5,29.6c16.3,0,29.5-13.3,29.5-29.6
		C229.5,190.6,216.2,177.3,199.9,177.3z M400.3,177.3c-16.3,0-29.5,13.3-29.5,29.5c0,16.3,13.2,29.6,29.5,29.6
		c16.3,0,29.5-13.3,29.5-29.6C429.8,190.6,416.5,177.3,400.3,177.3z"/>
	<g id="layer1_00000029743656800918017050000016750776970122033315_" transform="translate(-559.28571,-488.79075)">
		<g id="g27_00000099637905301294773160000014691279167112077217_" transform="translate(491.78471,169.30575)">
			<path id="path29_00000044875471226278623750000018191259228973924264_" class="st5" d="M311.3,520.1l-7.5-2.4
				c-0.9-3.7-2.4-7.2-4.5-10.4l3.5-6.8c-2.4-3.1-5.3-5.8-8.5-8.1l-7.1,3.4c-3.3-2-6.9-3.4-10.8-4.3l-2.5-7.2c-2-0.3-4-0.4-6-0.4
				c-2,0-4,0.1-6,0.4l-2.5,7.2c-3.9,0.9-7.5,2.3-10.8,4.3l-7.1-3.4c-3.2,2.3-6,5.1-8.5,8.1l3.5,6.8c-2,3.2-3.6,6.7-4.5,10.4
				l-7.5,2.4c-0.3,1.9-0.4,3.8-0.4,5.7s0.1,3.9,0.4,5.7l7.5,2.4c0.9,3.7,2.4,7.2,4.5,10.4l-3.5,6.8c2.4,3.1,5.3,5.8,8.5,8.1l7.1-3.4
				c3.3,2,6.9,3.4,10.8,4.3l2.5,7.2c2,0.3,4,0.4,6,0.4c2,0,4-0.1,6-0.4l2.5-7.2c3.9-0.9,7.5-2.3,10.8-4.3l7.1,3.4
				c3.2-2.3,6-5.1,8.5-8.1l-3.5-6.8c2-3.2,3.6-6.7,4.5-10.4l7.5-2.4c0.3-1.9,0.4-3.8,0.4-5.7S311.6,521.9,311.3,520.1z M268,554.5
				c-16.5,0-29.9-12.8-29.9-28.7s13.4-28.7,29.9-28.7s29.9,12.8,29.9,28.7S284.5,554.5,268,554.5z"/>
		</g>
	</g>
	<path class="st5" d="M200.4,176.5c-16.6,0-30.2,13.3-30.2,29.6c0,16.3,13.5,29.5,30.2,29.5c16.6,0,30.2-13.2,30.2-29.5
		C230.6,189.8,217.1,176.5,200.4,176.5z"/>
	<g>
		<g>
			<path class="st1" d="M214.3,182.8c0-2-1.4-3.7-3-3.7c-1.7,0-3,1.7-3,3.7c0,1.1-0.1,2.2-0.4,3.4h-14.7c-0.2-0.8-0.3-1.5-0.3-2.3
				h9.7c0.5,0,0.9-0.5,0.9-1.1c0-0.6-0.4-1.1-0.9-1.1h-9.9c-0.4-1.5-1.5-2.6-2.9-2.6c-1.7,0-3,1.7-3,3.7c0,8.6,4.6,16,9.8,23.5
				c-5.1,7.2-9.8,14.8-9.8,23.5c0,2,1.4,3.7,3,3.7c1.3,0,2.4-1,2.8-2.4h15.9c0.4,1.4,1.5,2.4,2.8,2.4c1.7,0,3-1.7,3-3.7
				c0-8.6-4.6-16-9.8-23.5C209.6,199.1,214.3,191.5,214.3,182.8z M207.3,188.3c-0.3,0.8-0.6,1.6-0.9,2.4h-11.8
				c-0.3-0.8-0.7-1.6-0.9-2.4H207.3z M197,195.3c-0.5-0.8-0.9-1.6-1.3-2.4h9.7c-0.4,0.8-0.9,1.6-1.3,2.4H197z M202.7,197.4
				c-0.7,1.1-1.4,2.1-2.2,3.2c-0.7-1.1-1.5-2.1-2.2-3.2H202.7z M188.5,182.8c0-0.8,0.6-1.5,1.3-1.5c0.7,0,1.3,0.7,1.3,1.5
				c0,4.8,2,9.4,4.7,14c0.1,0.1,0.1,0.3,0.2,0.4c1.1,1.7,2.2,3.4,3.4,5.2c-0.4,0.5-0.8,1.1-1.1,1.6c-0.2,0.2-0.3,0.5-0.5,0.7
				C192.8,197.6,188.5,190.6,188.5,182.8z M191,229.8c0,0.8-0.6,1.5-1.3,1.5c-0.7,0-1.3-0.7-1.3-1.5c0-8.9,5.6-16.8,11.1-24.5
				c5.4-7.6,10.5-14.8,10.5-22.5c0-0.8,0.6-1.5,1.3-1.5c0.7,0,1.3,0.7,1.3,1.5c0,8.9-5.6,16.8-11.1,24.5
				C196.1,214.9,191,222.1,191,229.8z M195.6,220c0.4-0.8,0.8-1.6,1.3-2.4h7.3c0.5,0.8,0.9,1.6,1.3,2.4H195.6z M206.5,222.1
				c0.3,0.8,0.6,1.6,0.9,2.4h-13.7c0.2-0.8,0.5-1.6,0.9-2.4H206.5z M198.2,215.4c0.7-1.1,1.5-2.3,2.3-3.4c0.8,1.1,1.6,2.3,2.3,3.4
				H198.2z M192.8,229c0-0.8,0.1-1.5,0.3-2.3h14.8c0.1,0.8,0.2,1.5,0.3,2.3H192.8z M212.5,229.8c0,0.8-0.6,1.5-1.3,1.5
				c-0.7,0-1.3-0.7-1.3-1.5c0-6.8-3.9-13.1-8.3-19.5c0.4-0.5,0.8-1.1,1.1-1.6c0.2-0.2,0.3-0.5,0.5-0.7
				C208.3,215,212.5,222,212.5,229.8z"/>
		</g>
	</g>
	<g id="layer1_00000011031626307859567180000006318523032665188228_" transform="translate(-559.28571,-488.79075)">
		<g id="g27_00000066487754509170146080000006852956874662981821_" transform="translate(491.78471,169.30575)">
			<path id="path29_00000075875742963508451620000006066171245614646950_" class="st5" d="M511,521.5l-7.5-2.4
				c-0.9-3.7-2.4-7.2-4.5-10.4l3.5-6.8c-2.4-3.1-5.3-5.8-8.5-8.1l-7.1,3.4c-3.3-2-6.9-3.4-10.8-4.3l-2.5-7.2c-2-0.3-4-0.4-6-0.4
				s-4,0.1-6,0.4l-2.5,7.2c-3.9,0.9-7.5,2.3-10.8,4.3l-7.1-3.4c-3.2,2.3-6,5.1-8.5,8.1l3.5,6.8c-2,3.2-3.6,6.7-4.5,10.4l-7.5,2.4
				c-0.3,1.9-0.4,3.8-0.4,5.7c0,1.9,0.1,3.9,0.4,5.7l7.5,2.4c0.9,3.7,2.4,7.2,4.5,10.4l-3.5,6.8c2.4,3.1,5.3,5.8,8.5,8.1l7.1-3.4
				c3.3,2,6.9,3.4,10.8,4.3l2.5,7.2c2,0.3,4,0.4,6,0.4s4-0.1,6-0.4l2.5-7.2c3.9-0.9,7.5-2.3,10.8-4.3l7.1,3.4c3.2-2.3,6-5.1,8.5-8.1
				l-3.5-6.8c2-3.2,3.6-6.7,4.5-10.4l7.5-2.4c0.3-1.9,0.4-3.8,0.4-5.7C511.4,525.3,511.2,523.4,511,521.5z M467.7,555.9
				c-16.5,0-29.9-12.8-29.9-28.7c0-15.8,13.4-28.7,29.9-28.7s29.9,12.8,29.9,28.7C497.5,543.1,484.2,555.9,467.7,555.9z"/>
		</g>
	</g>
	<path class="st5" d="M400.1,178.2c-16.6,0-30.2,13.3-30.2,29.6c0,16.3,13.5,29.5,30.2,29.5c16.6,0,30.2-13.2,30.2-29.5
		C430.2,191.5,416.7,178.2,400.1,178.2z"/>
	<g>
		<g id="layer1_00000175314461045666963840000002373304378092039590_" transform="translate(-559.28571,-488.79075)">
			<g id="g27_00000032641868331432631730000006455211402548384926_" transform="translate(491.78471,169.30575)">
				<path id="path29_00000074401275495484234460000015784604813592061315_" class="st5" d="M412.6,768l-7.5-2.4
					c-0.9-3.7-2.4-7.2-4.5-10.4l3.5-6.8c-2.4-3.1-5.3-5.8-8.5-8.1l-7.1,3.4c-3.3-2-6.9-3.4-10.8-4.3l-2.5-7.2c-2-0.3-4-0.4-6-0.4
					s-4,0.1-6,0.4l-2.5,7.2c-3.9,0.9-7.5,2.3-10.8,4.3l-7.1-3.4c-3.2,2.3-6,5.1-8.5,8.1l3.5,6.8c-2,3.2-3.6,6.7-4.5,10.4L326,768
					c-0.3,1.9-0.4,3.8-0.4,5.7c0,1.9,0.1,3.9,0.4,5.7l7.5,2.4c0.9,3.7,2.4,7.2,4.5,10.4l-3.5,6.8c2.4,3.1,5.3,5.8,8.5,8.1l7.1-3.4
					c3.3,2,6.9,3.4,10.8,4.3l2.5,7.2c2,0.3,4,0.4,6,0.4s4-0.1,6-0.4l2.5-7.2c3.9-0.9,7.5-2.3,10.8-4.3l7.1,3.4
					c3.2-2.3,6-5.1,8.5-8.1l-3.5-6.8c2-3.2,3.6-6.7,4.5-10.4l7.5-2.4c0.3-1.9,0.4-3.8,0.4-5.7C413,771.8,412.9,769.9,412.6,768z
					 M369.3,802.4c-16.5,0-29.9-12.8-29.9-28.7s13.4-28.7,29.9-28.7s29.9,12.8,29.9,28.7S385.8,802.4,369.3,802.4z"/>
			</g>
		</g>
		<path class="st5" d="M301.8,425.4c-16.6,0-30.1,12.9-30.1,28.9c0,15.9,13.5,28.8,30.1,28.8c16.6,0,30.1-12.9,30.1-28.8
			C331.9,438.4,318.4,425.4,301.8,425.4z"/>
	</g>
	<path id="path18007-6-3-6_00000003819165799549662460000006267112623074984326_" class="st1" d="M392.4,174.7
		c-0.2,0-0.3,0.1-0.2,0.2c0.2,0.3,2.6,5.6,3.4,10.3c-5.8,0.3-12.1,1.1-13.5,3.4c-2.9,5.1,6.4,6.5,14.3,7.9c0.1,2.3,0.2,5,0.3,8
		c-5.4,1.7-10.8,3.7-9.4,6.7c1.3,2.9,5.8,4,10,5c0.1,2.6,0.2,5,0.4,7.5c-2.4,0.5-4.5,1.3-4.6,3.3c-0.2,2.1,2.7,3.1,5,3.8
		c0.1,1.3,0.2,2.5,0.2,3.6c-2.9,0.8-7.1,0.9-7.1,0.9s3.7,0.2,7.2-0.2c0.4-0.1,0.8-0.1,1.2-0.2c2-0.4,3.7-1,4.2-2.1
		c0.6-1.4-1-2.2-2.9-2.9c0,0.7-0.1,1.4-0.1,2c0.3,0.3,0.4,0.5,0.2,0.9c-0.2,0.4-0.7,0.8-1.4,1.1c0.1-2.2,0.3-5.4,0.5-8.3
		c-1.3,0.1-1.9,0.3-2.2,0.4c0,0.8,0.1,1.9,0.1,2.7c-1.3-0.6-2.3-1.2-2.3-2.3c0-2.8,15.1-1,13.7-6.8c-0.5-2.3-4-3.7-7.8-4.8
		c0,0.8-0.1,1.6-0.1,2.4c2.4,0.8,4.2,1.8,4.1,3.5c-0.1,1.5-2.7,2-5.4,2.4c0.3-5,0.5-10.1,0.7-15.4c-1.4,0.4-2.7,0.7-4,1
		c0.1,1.6,0.1,3.2,0.2,4.8c-3.4-1-6-2-5.2-3.6c1.8-3.9,22.1-3.9,20.2-11.1c-0.6-2.3-4.9-3.4-9.5-4.3c0,1-0.1,1.8-0.1,2.9
		c2.5,0.7,4.2,1.4,4.2,2.6c0,1-2.4,1.9-5.5,2.9c0.3-5.8,0.5-11.4,0.6-14.1c-0.6,0-1.2,0-1.8,0c-1.3,0-2.6,0.1-3.8,0.2
		c0,0.7,0.1,2.4,0.1,4.6c-5-0.8-8.8-1.7-7.3-3.8c2.2-3.1,15.6-2.8,19-2.3c3.3,0.5,11.8,0.4,9.7-1c-0.2-0.2-3.9-1.5-5.7-1.9
		c-0.7-0.2-1.4-0.2-2.2-0.2c-1.3,0-2.7,0.2-3.9,0.3c-0.5,0-2,0-4.1,0c-0.2-3.6,0.9-6.9,0.3-7.4c-0.8-0.6,0.1-1.3-2.1-1.2
		C398.1,176.5,393.5,174.7,392.4,174.7L392.4,174.7z M399.5,235.6c-0.3,0.1-0.6,0.1-1,0.2c0.2,2.5,0.1,5,0.3,5.1
		C399.6,240.1,399.3,238.2,399.5,235.6z"/>
	<g>
		<ellipse class="st6" cx="277.6" cy="445.3" rx="2.7" ry="2.7"/>
		<ellipse class="st6" cx="277.6" cy="460.8" rx="2.7" ry="2.7"/>
		<ellipse class="st6" cx="303" cy="477.1" rx="2.7" ry="2.7"/>
		<ellipse class="st6" cx="303" cy="465.2" rx="2.7" ry="2.7"/>
		<ellipse class="st6" cx="328.2" cy="453.1" rx="2.7" ry="2.7"/>
		<ellipse class="st6" cx="303" cy="453.1" rx="2.7" ry="2.7"/>
		<ellipse class="st6" cx="303" cy="441.3" rx="2.7" ry="2.7"/>
		<ellipse class="st6" cx="303" cy="429.1" rx="2.7" ry="2.7"/>
		<line class="st6" x1="280.4" y1="445.3" x2="300.2" y2="429.1"/>
		<line class="st6" x1="280.4" y1="445.3" x2="300.2" y2="441.3"/>
		<line class="st6" x1="280.4" y1="445.3" x2="300.2" y2="453.2"/>
		<line class="st6" x1="280.4" y1="445.3" x2="300.2" y2="477.1"/>
		<line class="st6" x1="280.4" y1="445.3" x2="300.2" y2="465.2"/>
		<line class="st6" x1="280.4" y1="460.8" x2="300.2" y2="429.1"/>
		<line class="st6" x1="280.4" y1="460.8" x2="300.2" y2="441.3"/>
		<line class="st6" x1="280.4" y1="460.8" x2="300.2" y2="453.2"/>
		<line class="st6" x1="280.4" y1="460.8" x2="300.2" y2="465.2"/>
		<line class="st6" x1="280.4" y1="460.8" x2="300.2" y2="477.1"/>
		<line class="st6" x1="305.7" y1="429.1" x2="325.5" y2="453.2"/>
		<line class="st6" x1="305.7" y1="441.3" x2="325.5" y2="453.2"/>
		<line class="st6" x1="305.7" y1="477.1" x2="325.5" y2="453.2"/>
		<line class="st6" x1="305.7" y1="465.2" x2="325.5" y2="453.2"/>
		<line class="st6" x1="305.7" y1="453.2" x2="325.5" y2="453.2"/>
	</g>
</g>
</svg>
